<?xml version="1.0" encoding="utf-8"?>
<!-- Generator: Adobe Illustrator 19.0.0, SVG Export Plug-In . SVG Version: 6.00 Build 0)  -->
<svg version="1.1" id="Layer_1" xmlns="http://www.w3.org/2000/svg" xmlns:xlink="http://www.w3.org/1999/xlink" x="0px" y="0px"
	 viewBox="-3 297 604 199" style="enable-background:new -3 297 604 199;" xml:space="preserve">
<style type="text/css">
	.st0{fill:#4D4D4D;}
	.st1{fill:#00980E;}
	.st2{fill:#00BC11;}
	.st3{fill:#263238;}
	.st4{fill:#FFFFFF;}
	.st5{fill:#1976D2;}
	.st6{fill:#42A5F5;}
	.st7{display:none;}
	.st8{display:inline;}
</style>
<g id="svg2" xmlns:dc="http://purl.org/dc/elements/1.1/" xmlns:cc="http://creativecommons.org/ns#" xmlns:rdf="http://www.w3.org/1999/02/22-rdf-syntax-ns#" xmlns:svg="http://www.w3.org/2000/svg" xmlns:sodipodi="http://sodipodi.sourceforge.net/DTD/sodipodi-0.dtd" xmlns:inkscape="http://www.inkscape.org/namespaces/inkscape" sodipodi:docname="logo.svg" inkscape:version="0.91 r13725">
	
		<sodipodi:namedview  borderlayer="true" units="px" showgrid="false" inkscape:cy="150.32632" inkscape:cx="245.06831" inkscape:zoom="1.3338306" borderopacity="1.0" bordercolor="#666666" pagecolor="#ffffff" id="base" inkscape:snap-text-baseline="true" inkscape:object-nodes="true" inkscape:showpageshadow="false" inkscape:window-maximized="1" inkscape:window-y="-8" inkscape:current-layer="layer1" inkscape:document-units="px" inkscape:pageopacity="0.0" inkscape:window-x="-8" inkscape:window-height="715" inkscape:window-width="1366" inkscape:pageshadow="2">
		<inkscape:grid  type="xygrid" id="grid4137"></inkscape:grid>
	</sodipodi:namedview>
	<g id="layer1" transform="translate(0,-796.36216)" inkscape:label="Layer 1" inkscape:groupmode="layer">
		<g id="text4133">
			<path id="path4148" inkscape:connector-curvature="0" class="st0" d="M14.7,1209.2v-40.1c0-6.1,2.2-11.4,6.5-15.7
				c4.4-4.3,9.6-6.4,15.7-6.4s11.4,2.1,15.7,6.4c4.3,4.4,6.4,9.6,6.4,15.7v40.1C59.1,1209.2,14.7,1209.2,14.7,1209.2z M70.6,1169.1
				c0-9.3-3.3-17.2-9.9-23.8c-6.6-6.6-14.5-9.9-23.8-9.9s-17.2,3.3-23.8,9.9s-9.9,14.5-9.9,23.8v76.4c0,1.6,0.6,2.9,1.7,4
				c1.1,1.1,2.4,1.7,4,1.7s3-0.6,4.1-1.7s1.7-2.4,1.7-4v-24.7h44.4v24.7c0,1.6,0.6,2.9,1.7,4c1.1,1.1,2.4,1.7,4,1.7s3-0.6,4.1-1.7
				c1.1-1.1,1.7-2.4,1.7-4C70.6,1245.5,70.6,1169.1,70.6,1169.1z"/>
			<path id="path4150" sodipodi:nodetypes="scsssssscsscssssssssscscsc" inkscape:connector-curvature="0" class="st0" d="
				M124.2,1225.6c0,4.1-1.4,7.7-4.3,10.6s-6.5,4.3-10.6,4.3s-7.6-1.4-10.5-4.3s-4.4-6.5-4.4-10.6v-21.3c0-4.1,1.5-7.7,4.4-10.6
				s6.4-4.3,10.5-4.3s7.7,1.4,10.6,4.3s4.3,6.5,4.3,10.6V1225.6z M94.3,1247.4c4.5,3.1,9.5,4.6,14.9,4.6c7.3,0,13.5-2.6,18.7-7.7
				c5.2-5.1,7.7-11.4,7.7-18.7v-21.3c0-7.3-2.6-13.5-7.7-18.7c-5.1-5.2-11.4-7.7-18.7-7.7s-13.5,2.6-18.7,7.7
				c-5.2,5.2-7.7,11.4-7.7,18.7v60.6c0,1.6,0.6,2.9,1.7,4c1.1,1.1,2.4,1.7,4.1,1.7c1.6,0,2.9-0.6,4-1.7s1.7-2.4,1.7-4L94.3,1247.4z"
				/>
			<path id="path4152" inkscape:connector-curvature="0" class="st0" d="M159.6,1184.6c0-1.6-0.6-3-1.7-4.1
				c-1.1-1.1-2.4-1.7-4.1-1.7c-1.6,0-2.9,0.6-4,1.7c-1.1,1.1-1.7,2.4-1.7,4.1v60.9c0,1.6,0.6,2.9,1.7,4c1.1,1.1,2.4,1.7,4,1.7
				c1.6,0,3-0.6,4.1-1.7c1.1-1.1,1.7-2.4,1.7-4V1184.6z M158.6,1157.8c-1.3-1.3-2.9-2-4.8-2c-1.9,0-3.5,0.7-4.7,2
				c-1.3,1.3-2,2.9-2,4.8c0,1.8,0.7,3.4,2,4.7c1.3,1.3,2.8,2,4.7,2s3.5-0.7,4.8-2s2-2.9,2-4.7
				C160.6,1160.8,159.9,1159.2,158.6,1157.8z"/>
			<path id="path4154" sodipodi:nodetypes="cscscccscsccsssssssssscc" inkscape:connector-curvature="0" class="st0" d="
				M209.5,1249.4c1.1,1.1,2.4,1.7,4,1.8c1.6,0.1,2.9-0.5,4.1-1.5c1.2-1.1,1.8-2.4,1.9-4c0.1-1.6-0.5-2.9-1.5-4.1l-26.5-31l23.9-23.7
				c1.1-1.1,1.7-2.5,1.7-4.1s-0.6-2.9-1.7-4.1c-1.1-1.1-2.5-1.6-4.1-1.6s-2.9,0.5-4.1,1.6l-23.7,23.6v-41.2c0-1.6-0.6-2.9-1.7-4.1
				c-1.1-1.1-2.4-1.6-4.1-1.6c-1.6,0-2.9,0.5-4,1.6s-1.7,2.5-1.7,4.1v84.3c0,1.6,0.6,2.9,1.7,4.1c1.1,1.1,2.4,1.6,4,1.6
				s3-0.5,4.1-1.6s1.7-2.5,1.7-4.1v-26.6L209.5,1249.4z"/>
			<path id="path4156" inkscape:connector-curvature="0" class="st0" d="M268.4,1225.6c0,4.1-1.5,7.7-4.4,10.6s-6.4,4.3-10.5,4.3
				s-7.7-1.4-10.6-4.3c-2.9-2.9-4.3-6.5-4.3-10.6v-21.3c0-4.1,1.4-7.7,4.3-10.6c2.9-2.9,6.5-4.4,10.6-4.4s7.6,1.5,10.5,4.4
				s4.4,6.5,4.4,10.6V1225.6z M253.5,1177.8c-7.3,0-13.5,2.6-18.7,7.7s-7.7,11.4-7.7,18.7v21.3c0,7.3,2.6,13.5,7.7,18.7
				s11.4,7.7,18.7,7.7s13.5-2.6,18.7-7.7c5.2-5.2,7.7-11.4,7.7-18.7v-21.3c0-7.3-2.6-13.5-7.7-18.7
				C267,1180.4,260.8,1177.8,253.5,1177.8L253.5,1177.8z"/>
		</g>
		<path id="path4141" inkscape:connector-curvature="0" class="st1" d="M301.2,1255.9h23.5v-140.8h-23.5V1255.9z"/>
		<path id="path4143" inkscape:connector-curvature="0" class="st2" d="M301.2,1162h23.5v46.9h-23.5V1162z"/>
		<path id="path4145" sodipodi:nodetypes="ccc" inkscape:connector-curvature="0" class="st2" d="M301.2,1162
			c-16.6-16.6-33.2-33.2-49.8-16.6C268,1162,284.6,1178.6,301.2,1162z"/>
	</g>
	<g id="layer1_1_" transform="translate(-277.71988,-312.33911)" inkscape:label="Layer 1" inkscape:groupmode="layer">
		<g id="g4895-4-4" transform="translate(1419.0442,398.9018)">
			<g id="g4579-2-20" transform="translate(-29.620665,-4)">
				<g id="g4445-2-0" transform="translate(12.499948,7.809312)">
					
						<g id="g4561-6-7-0" transform="translate(-712.85583,-503.26814)" inkscape:export-filename="/home/emanuele/Desktop/logo1.png" inkscape:export-xdpi="44.860481" inkscape:export-ydpi="44.860481">
						<g id="flowRoot4513-6-6-08" transform="translate(16.233481,0)">
							<path id="path3428" class="st3" d="M-2.5,895.1c-0.3,0-0.7,0-1,0.1c-0.4,0-0.7,0-1.1,0h-7.5c-6.8,0-10.3-2.3-10.3-6.8v-10.8
								c0-4.4,3.4-6.6,10.1-6.6h7.8c6.7,0,10.1,2.2,10.1,6.6v10.8c0,2.7-1.2,4.6-3.6,5.6l2.5,1.7c0.7,0.4,1.1,0.9,1.1,1.4
								s-0.2,0.8-0.6,1c-0.3,0.3-0.9,0.4-1.5,0.4c-0.2,0-0.4,0-0.6-0.1c-0.2,0-0.5-0.2-0.8-0.4L-2.5,895.1L-2.5,895.1z M1.8,877.7
								c0-2.5-2.1-3.8-6.4-3.8h-7.7c-4.2,0-6.4,1.3-6.4,3.8v10.7c0,2.6,2.2,4,6.7,4h7.1c4.4,0,6.7-1.3,6.7-4L1.8,877.7L1.8,877.7z"
								/>
							<path id="path3430" class="st3" d="M25.2,895.2c-6,0-9-1.8-9-5.5v-10.2c0-1,0.6-1.5,1.9-1.5s1.9,0.5,1.9,1.5v10.2
								c0,1.8,1.7,2.7,5.2,2.7h6.6c3.5,0,5.2-0.9,5.2-2.7v-10.2c0-1,0.6-1.5,1.9-1.5c1.3,0,1.9,0.5,1.9,1.5v10.2c0,3.7-3,5.5-9,5.5
								H25.2z"/>
							<path id="path3432" class="st3" d="M57.9,895.2c-5,0-7.5-1.6-7.5-4.7v-2c0-3.1,2.5-4.6,7.5-4.6h14.9v-0.5
								c0-1.6-1.4-2.4-4.3-2.4h-4.9c-1.2,0-1.8-0.5-1.8-1.4s0.6-1.4,1.8-1.4h4.9c5.3,0,7.9,1.7,7.9,5.2v6.9c0,3.3-2.5,4.9-7.6,4.9
								H57.9L57.9,895.2z M68.5,892.5c2.8,0,4.2-0.8,4.2-2.3v-3.8H58.1c-2.7,0-4.1,0.7-4.1,2.1v1.8c0,1.4,1.4,2.2,4.1,2.2H68.5
								L68.5,892.5z"/>
							<path id="path3434" class="st3" d="M109.5,891.3c0,2.6-2.7,3.9-8,3.9H87.8c-1.2,0-1.8-0.5-1.8-1.4s0.6-1.4,1.8-1.4h13.6
								c2.9,0,4.3-0.4,4.3-1.2v-2c0-0.8-1.4-1.2-4.3-1.2h-7.1c-5.3,0-8-1.3-8-3.8v-1.6c0-3,2.7-4.5,8.2-4.5h4.8
								c1.2,0,1.8,0.5,1.8,1.4c0,0.5-0.2,0.8-0.5,1.1c-0.3,0.2-0.7,0.3-1.3,0.3h-4.8c-3.1,0-4.6,0.6-4.6,1.7v1.5
								c0,1,1.5,1.4,4.5,1.4h7.2c5.2,0,7.8,1.2,7.8,3.6L109.5,891.3L109.5,891.3z"/>
							<path id="path3436" class="st3" d="M126.2,895.2c-5,0-7.5-1.6-7.5-4.7v-2c0-3.1,2.5-4.6,7.5-4.6h14.9v-0.5
								c0-1.6-1.4-2.4-4.3-2.4h-4.9c-1.2,0-1.8-0.5-1.8-1.4s0.6-1.4,1.8-1.4h4.9c5.3,0,7.9,1.7,7.9,5.2v6.9c0,3.3-2.5,4.9-7.6,4.9
								H126.2L126.2,895.2z M136.8,892.5c2.8,0,4.2-0.8,4.2-2.3v-3.8h-14.6c-2.7,0-4.1,0.7-4.1,2.1v1.8c0,1.4,1.4,2.2,4.1,2.2H136.8
								L136.8,892.5z"/>
							<path id="path3438" class="st3" d="M155.2,883.8c0-3.7,3-5.6,9-5.6h2.7c1.2,0,1.8,0.5,1.8,1.4c0,1-0.6,1.4-1.8,1.4h-2.8
								c-3.5,0-5.2,0.9-5.2,2.6v10.2c0,1-0.6,1.5-1.9,1.5c-1.2,0-1.9-0.5-1.9-1.5L155.2,883.8L155.2,883.8z"/>
						</g>
					</g>
				</g>
			</g>
			
				<g id="g5443-0-1-5-1-9" transform="matrix(0.55595317,0,0,0.55595317,-521.93484,-328.66104)" inkscape:export-filename="/home/emanuele/Desktop/logo1.png" inkscape:export-xdpi="44.860481" inkscape:export-ydpi="44.860481">
				
					<g id="g8856-6-1-1-9-0-1-9" transform="matrix(0.09527033,0,0,0.09527033,-1695.2716,706.62921)" inkscape:export-xdpi="3.4165223" inkscape:export-ydpi="3.4165223">
					
						<circle id="circle8858-1-3-7-6-5-3-0" inkscape:export-xdpi="10.031387" inkscape:export-ydpi="10.031387" class="st4" cx="15524.8" cy="4144.9" r="1188">
					</circle>
					
						<path id="path8860-5-4-8-2-9-0-9" inkscape:export-xdpi="10.031387" inkscape:export-ydpi="10.031387" inkscape:connector-curvature="0" class="st3" d="
						M15719.2,4144.8c0,107.3-87,194.4-194.4,194.4l0,0c-107.3,0-194.4-87-194.4-194.4l0,0c0-107.3,87-194.4,194.4-194.4
						C15632.2,3950.5,15719.2,4037.5,15719.2,4144.8z"/>
					
						<path id="path8862-5-5-9-1-3-6-3" inkscape:transform-center-y="-444.04649" inkscape:transform-center-x="-514.04855" inkscape:connector-curvature="0" class="st5" d="
						M16387.6,3646.7c-42.3-72.7-93.6-139.8-152.7-199.6l-224.7,129.7c-70-59.8-149.6-105.6-234.6-136
						c-76.7,77.7-137.6,164.6-181.6,259.1c250.1-17,508.4,73.5,748.2,260.9l141.4-81.6
						C16461.6,3797.9,16429.4,3719.8,16387.6,3646.7L16387.6,3646.7z"/>
					
						<path id="path8864-4-8-1-2-4-4-4" inkscape:transform-center-y="265.80217" inkscape:transform-center-x="-689.63727" inkscape:connector-curvature="0" class="st6" d="
						M16387.7,4642.9c41.8-73,74.3-150.9,96.5-232l-224.7-129.7c16.8-90.6,16.7-182.4,0.5-271.1c-105.7-27.6-211.4-36.9-315.2-27.7
						c139.8,208.1,190.6,477.1,148.2,778.4l141.4,81.6C16293.7,4782.6,16345.2,4715.6,16387.7,4642.9L16387.7,4642.9z"/>
					
						<path id="path8866-7-5-5-0-6-4-7" inkscape:transform-center-y="639.34029" inkscape:transform-center-x="-117.49007" inkscape:connector-curvature="0" class="st5" d="
						M15524.9,5141.1c84.1-0.2,167.8-11.1,249.2-32.4v-259.5c86.8-30.7,166.3-76.8,235-135.2c-29-105.3-73.7-201.5-133.6-286.8
						c-110.3,225.1-317.9,403.6-600,517.6v163.3C15356.9,5129.6,15440.7,5140.7,15524.9,5141.1z"/>
					
						<path id="path8868-6-7-4-7-2-7-3" inkscape:transform-center-y="444.04652" inkscape:transform-center-x="514.04857" inkscape:connector-curvature="0" class="st6" d="
						M14662.1,4643c42.3,72.7,93.6,139.8,152.7,199.6l224.7-129.7c70,59.8,149.6,105.6,234.6,136c76.7-77.7,137.6-164.6,181.6-259.1
						c-250.1,17-508.4-73.5-748.2-260.9l-141.4,81.6C14588.1,4491.8,14620.4,4569.9,14662.1,4643L14662.1,4643z"/>
					
						<path id="path8870-5-3-9-3-5-5-1" inkscape:transform-center-y="-265.80221" inkscape:transform-center-x="689.63729" inkscape:connector-curvature="0" class="st5" d="
						M14662,3646.8c-41.8,73-74.3,150.9-96.5,232l224.7,129.7c-16.8,90.6-16.7,182.4-0.5,271.1c105.7,27.6,211.4,36.9,315.2,27.7
						c-139.8-208.1-190.6-477.1-148.2-778.4l-141.4-81.6C14756,3507,14704.5,3574.1,14662,3646.8z"/>
					
						<path id="path8872-6-3-2-1-3-3-7" inkscape:transform-center-y="-639.34032" inkscape:transform-center-x="117.49005" inkscape:connector-curvature="0" class="st6" d="
						M15524.8,3148.6c-84.1,0.2-167.8,11.1-249.2,32.4v259.4c-86.8,30.7-166.3,76.8-235,135.2c29,105.3,73.7,201.5,133.6,286.8
						c110.3-225.1,317.9-403.6,600-517.6v-163.3C15692.8,3160.1,15609,3149,15524.8,3148.6L15524.8,3148.6z"/>
				</g>
			</g>
		</g>
	</g>
</g>
<g id="Layer_4" class="st7">
	<g class="st8">
		<path class="st1" d="M388.7,398.7h-10.3v-10.9c0-2.7-2.2-4.9-4.9-4.9h-0.1v20.8h20.2c0,0,0,0,0-0.1l0,0
			C393.6,400.9,391.4,398.7,388.7,398.7z"/>
		<path class="st2" d="M358.1,398.7h10.2v-10.9c0-2.7,2.2-4.9,4.9-4.9h0.1v20.8h-20.2c0,0,0,0,0-0.1l0,0
			C353.2,400.9,355.4,398.7,358.1,398.7z"/>
		<path class="st6" d="M388.7,408.7h-10.3v10.9c0,2.7-2.2,4.9-4.9,4.9h-0.1v-20.8h20.2c0,0,0,0,0,0.1l0,0
			C393.6,406.5,391.4,408.7,388.7,408.7z"/>
		<path class="st5" d="M358.1,408.7h10.2v10.9c0,2.7,2.2,4.9,4.9,4.9h0.1v-20.8h-20.2c0,0,0,0,0,0.1l0,0
			C353.2,406.5,355.4,408.7,358.1,408.7z"/>
	</g>
</g>
<g>
	<path class="st0" d="M351.3,404.6L351.3,404.6c0,2.8,2.2,5,4.9,5h10.9v10.3c0,2.7,2.2,4.9,4.9,4.9c0.1,0,0.1,0,0.1,0s0,0,0.1,0
		c2.7,0,4.9-2.2,4.9-4.9v-10.3H388c2.7,0,4.9-2.2,4.9-4.9v-0.1h-20.8H351.3z"/>
	<path class="st0" d="M388,399.6h-10.9v-10.3c0-2.8-2.2-5-4.9-4.9c-0.1,0-0.1,0-0.1,0s0,0-0.1,0c-2.7-0.1-4.9,2.1-4.9,4.9v10.3
		h-10.9c-2.7,0-4.9,2.2-4.9,4.9v0.1h20.8h20.8v-0.1C392.9,401.8,390.7,399.6,388,399.6z"/>
</g>
<g id="Layer_3">
	<g>
		<path class="st1" d="M378.4,418.7v-10.3h10.9c2.7,0,4.9-2.2,4.9-4.9v-0.1h-20.8v20.2c0,0,0,0,0.1,0l0,0
			C376.2,423.6,378.4,421.4,378.4,418.7z"/>
		<path class="st2" d="M378.4,388.1v10.3h10.9c2.7,0,4.9,2.2,4.9,4.9v0.1h-20.8v-20.2c0,0,0,0,0.1,0l0,0
			C376.2,383.1,378.4,385.3,378.4,388.1z"/>
		<path class="st6" d="M368.4,418.7v-10.3h-10.9c-2.7,0-4.9-2.2-4.9-4.9v-0.1h20.8v20.2c0,0,0,0-0.1,0l0,0
			C370.6,423.6,368.4,421.4,368.4,418.7z"/>
		<path class="st5" d="M368.4,388.1v10.3h-10.9c-2.7,0-4.9,2.2-4.9,4.9v0.1h20.8v-20.2c0,0,0,0-0.1,0l0,0
			C370.6,383.1,368.4,385.3,368.4,388.1z"/>
	</g>
	<g>
		<path class="st1" d="M368.4,388.1v10.3h-10.9c-2.7,0-4.9,2.2-4.9,4.9v0.1h20.8v-20.2c0,0,0,0-0.1,0l0,0
			C370.6,383.1,368.4,385.3,368.4,388.1z"/>
		<path class="st2" d="M368.4,418.7v-10.3h-10.9c-2.7,0-4.9-2.2-4.9-4.9v-0.1h20.8v20.2c0,0,0,0-0.1,0l0,0
			C370.6,423.6,368.4,421.4,368.4,418.7z"/>
		<path class="st6" d="M378.4,388.1v10.3h10.9c2.7,0,4.9,2.2,4.9,4.9v0.1h-20.8v-20.2c0,0,0,0,0.1,0l0,0
			C376.2,383.1,378.4,385.3,378.4,388.1z"/>
		<path class="st5" d="M378.4,418.7v-10.3h10.9c2.7,0,4.9-2.2,4.9-4.9v-0.1h-20.8v20.2c0,0,0,0,0.1,0l0,0
			C376.2,423.6,378.4,421.4,378.4,418.7z"/>
	</g>
</g>
</svg>
